<svg xmlns="http://www.w3.org/2000/svg" viewBox="0 0 108 108" width="108" height="108" fill="none">
  <defs>
    <linearGradient id="tvvc-grad" x1="0%" y1="0%" x2="100%" y2="100%">
      <stop offset="0%" stop-color="#3B82F6" />
      <stop offset="100%" stop-color="#10B981" />
    </linearGradient>
  </defs>
  <path fill="url(#tvvc-grad)" fill-rule="evenodd" clip-rule="evenodd" d="M28 28h52a6 6 0 0 1 6 6v32a6 6 0 0 1-6 6H28a6 6 0 0 1-6-6V34a6 6 0 0 1 6-6zm20 44h12v6H48v-6zm-8 6h28a2 2 0 0 1 2 2v2H38v-2a2 2 0 0 1 2-2zm10-52h8v2h-8v-2zm4-8a4 4 0 1 1 0 8 4 4 0 0 1 0-8zm-11 24h12a3 3 0 0 1 3 3v10a3 3 0 0 1-3 3H43a3 3 0 0 1-3-3V45a3 3 0 0 1 3-3zm15 5 9-5a1 1 0 0 1 1 1v14a1 1 0 0 1-1 1l-9-5V47zm-4-26.5a1.5 1.5 0 1 1 0 3 1.5 1.5 0 0 1 0-3z" />
</svg>